<?xml version="1.0" standalone="no"?>
<!DOCTYPE svg PUBLIC "-//W3C//DTD SVG 20010904//EN"
 "http://www.w3.org/TR/2001/REC-SVG-20010904/DTD/svg10.dtd">
<svg version="1.0" xmlns="http://www.w3.org/2000/svg"
 width="335.000000pt" height="268.000000pt" viewBox="0 0 335.000000 268.000000"
 preserveAspectRatio="xMidYMid meet">

<g transform="translate(0.000000,268.000000) scale(0.100000,-0.100000)"
fill="#000000" stroke="none">
<path d="M840 2180 l0 -80 1065 0 1065 0 2 -572 3 -573 83 -3 82 -3 0 656 0
655 -1150 0 -1150 0 0 -80z"/>
<path d="M510 1855 l0 -85 1070 0 1070 0 0 -575 0 -575 80 0 80 0 0 660 0 660
-1150 0 -1150 0 0 -85z"/>
<path d="M180 955 l0 -655 1150 0 1150 0 0 655 0 655 -1150 0 -1150 0 0 -655z
m1158 237 c172 -129 311 -239 310 -243 -2 -4 -133 -106 -293 -225 -159 -120
-305 -228 -322 -242 l-33 -24 0 491 c0 391 3 491 13 485 6 -5 153 -114 325
-242z"/>
<path d="M1170 949 l0 -161 33 24 c17 14 65 49 105 79 39 29 72 56 72 60 0 6
-164 133 -197 153 -10 6 -13 -28 -13 -155z"/>
</g>
</svg>
