<?xml version="1.0" standalone="no"?>
<!DOCTYPE svg PUBLIC "-//W3C//DTD SVG 20010904//EN"
 "http://www.w3.org/TR/2001/REC-SVG-20010904/DTD/svg10.dtd">
<svg version="1.0" xmlns="http://www.w3.org/2000/svg"
 width="309.000000pt" height="280.000000pt" viewBox="0 0 309.000000 280.000000"
 preserveAspectRatio="xMidYMid meet">

<g transform="translate(0.000000,280.000000) scale(0.100000,-0.100000)"
fill="#000000" stroke="none">
<path d="M125 2675 c-24 -24 -31 -57 -19 -90 12 -29 60 -45 138 -45 l74 0 21
-62 c151 -466 565 -1733 577 -1766 9 -23 24 -47 34 -52 12 -6 345 -10 920 -10
l901 0 24 25 c30 30 32 64 4 99 l-20 26 -864 0 -863 0 -36 107 c-20 59 -34
108 -32 110 1 2 104 12 228 23 611 54 1524 152 1545 166 13 8 25 24 28 37 50
210 175 795 175 821 0 48 -8 65 -41 81 -24 13 -187 15 -1171 15 l-1143 0 -80
248 c-53 163 -87 255 -102 270 -21 20 -31 22 -148 22 -120 0 -127 -1 -150 -25z"/>
<path d="M1035 511 c-154 -70 -165 -292 -18 -378 68 -40 133 -42 203 -6 128
66 161 223 67 329 -63 72 -166 95 -252 55z"/>
<path d="M2385 513 c-166 -87 -166 -312 -1 -389 64 -30 117 -30 181 0 59 27
77 46 104 106 49 107 6 226 -101 281 -46 24 -140 25 -183 2z"/>
</g>
</svg>
